<svg width="299" height="77" viewBox="0 0 299 77" fill="none" xmlns="http://www.w3.org/2000/svg">
<path d="M298.669 53.05C298.788 52.6887 298.639 52.3552 298.579 52.0217C298.52 51.9661 298.49 51.9106 298.43 51.855C298.251 51.4659 298.221 51.0212 297.923 50.6877C297.863 50.1597 297.415 49.854 297.027 49.5483C296.669 49.0758 296.311 48.5478 296.431 47.9641C296.639 47.0192 296.371 46.1577 295.983 45.3239C295.714 44.7125 295.356 44.1011 296.162 43.6008C296.251 43.5452 296.222 43.4063 296.132 43.3229C296.013 43.1561 295.923 42.9894 295.804 42.8226C295.476 42.1278 294.968 41.5164 294.401 40.9884C293.953 40.5715 293.625 40.0434 292.969 39.8211C292.879 39.7099 292.76 39.6544 292.611 39.6544C292.64 39.7377 292.64 39.8211 292.64 39.8767C292.64 39.7933 292.64 39.7377 292.611 39.6544C292.252 39.4042 292.043 39.0707 291.864 38.6816C291.596 38.0702 291.417 37.3754 290.85 36.903C290.76 36.5139 290.432 36.2915 290.133 36.0692C290.014 35.9303 289.895 35.7635 289.746 35.6523C288.731 34.763 287.328 34.235 286.91 32.8176C286.672 32.4285 286.463 32.0394 286.224 31.6503C285.508 30.5942 284.583 29.7883 283.419 29.149C283.329 28.9545 283.269 28.6766 283.12 28.5654C282.344 28.0652 282.434 27.3148 282.434 26.5922C282.434 25.7862 282.314 25.0081 282.016 24.2577C282.016 24.2299 282.016 24.2021 281.986 24.1465C281.747 22.8681 281.449 21.6175 280.554 20.5614C280.494 20.1167 280.166 19.8388 279.897 19.5331C279.778 19.2551 279.509 19.1162 279.3 18.9216C278.644 18.1991 277.927 17.6154 276.853 17.5876C276.674 17.5876 276.495 17.5876 276.316 17.6154C276.137 17.5321 276.047 17.3097 275.779 17.4209C275.6 17.3375 275.42 17.3931 275.241 17.4487C274.645 17.3097 274.048 17.1708 273.451 17.0874C271.75 16.7817 269.989 16.7261 268.258 16.6149C267.601 16.5871 267.482 16.3926 267.601 15.809C267.721 15.0864 267.751 14.3638 267.84 13.6412H267.93L267.989 13.5856C268.049 13.53 268.109 13.5022 268.168 13.4467C268.348 13.2521 268.258 13.0576 268.258 12.8352C268.228 12.8074 268.228 12.7797 268.198 12.7519C268.437 12.3628 268.139 12.0849 267.93 11.7791C267.631 11.3623 267.422 10.9454 268.049 10.6119C268.318 10.4729 268.348 10.2228 268.198 9.97267C267.96 9.61138 267.9 9.08333 267.303 8.97217C267.064 8.861 266.885 8.63866 266.587 8.66645C266.408 8.61087 266.229 8.55529 266.05 8.4997C265.453 7.99945 264.915 7.4714 264.468 6.83219C264.199 6.24856 263.811 5.72052 263.244 5.33143C262.737 4.83118 262.11 4.46988 261.454 4.19197C261.364 4.10859 261.245 4.02522 261.095 4.0808C259.603 3.33042 257.992 3.16367 256.32 3.24704C253.127 2.69121 249.904 2.55225 246.651 2.719C246.323 2.69121 245.995 2.66341 245.636 2.66341C242.174 2.44108 238.742 2.07979 235.281 2.07979C234.236 1.82967 233.162 1.91304 232.117 1.91304C231.849 1.7185 231.55 1.77408 231.252 1.80187C229.64 1.82967 228.029 1.88525 226.417 1.88525C223.582 1.91304 220.747 1.91304 217.941 1.94083C217.762 1.94083 217.583 1.94083 217.404 1.94083C216.569 1.94083 215.763 1.94083 214.927 1.94083C214.688 1.94083 214.45 1.94083 214.211 1.94083C214.151 1.94083 214.091 1.94083 214.032 1.94083C211.973 1.80187 209.913 1.99641 207.824 2.10758C206.69 2.0242 205.586 2.05199 204.452 2.10758C204.273 2.10758 204.094 2.07979 203.915 2.07979C198.752 2.13538 193.559 2.35771 188.396 2.44108C187.232 2.46887 186.038 2.719 184.874 2.719C182.935 2.719 180.995 2.52446 179.085 2.719C178.965 2.719 178.846 2.60784 178.727 2.60784C169.385 3.10809 159.985 3.02471 150.644 3.63613C144.257 4.05301 137.87 3.80288 131.484 3.386C121.934 2.77458 112.354 2.32991 102.804 1.96862C99.1034 1.82966 95.4027 1.6907 91.7021 1.55174C89.7623 1.46836 87.8522 1.32941 85.9124 1.41278C85.793 1.38499 85.7035 1.30162 85.5841 1.30162C81.3762 1.10707 77.198 0.912529 72.99 0.745778C65.8872 0.46786 58.7844 0.301109 51.7114 0.189941C50.9056 0.189941 50.0998 0.189943 49.2941 0.495653C48.6375 0.74578 47.9511 0.829156 47.205 0.773572C43.9819 0.523445 40.7289 1.10707 37.4759 0.495653C36.0733 0.217735 34.6706 0.99591 33.1486 0.829159C31.5668 0.634616 29.9851 0.745778 28.3736 0.745778C25.8965 0.551235 23.4195 0.384486 20.9126 0.773572C20.4948 0.912531 20.0471 0.829159 19.689 1.10708C19.2712 1.24604 19.3309 1.57953 19.3906 1.85745C19.4503 2.10758 19.5398 2.3855 19.3011 2.55225C18.3759 3.19146 18.3162 4.19197 18.1371 5.24806C18.1371 4.52547 18.167 3.91405 18.1073 3.30263C18.0476 2.91355 18.1073 2.46888 17.5104 2.32992C17.3015 2.46888 17.1224 2.60783 17.1523 2.85796C17.2717 4.30314 17.0628 5.80389 17.8984 7.1379C17.8984 7.41582 17.8984 7.66595 17.8984 7.94386C17.8387 8.24957 18.0476 8.41633 18.2267 8.61088C18.734 8.80542 19.301 8.74983 19.7189 9.1945C20.4948 10.0005 20.9425 9.8893 21.4796 8.94437C21.6587 8.63866 21.8079 8.30517 21.7781 7.91608C22.0765 7.66595 22.4048 7.52699 22.8226 7.58257C23.3896 7.61037 23.9268 7.61037 24.4342 7.36024C25.24 6.94337 25.5086 7.05453 26.0159 7.94386C25.9562 8.44412 26.0159 8.91658 26.3143 9.33346C26.7322 9.88929 26.5232 10.195 25.9562 10.4729C25.5086 10.6953 25.0907 10.9732 25.5086 11.5568C25.6279 11.5568 25.7473 11.5568 25.8667 11.5568C26.2248 11.6124 26.5531 11.6958 26.9112 11.7514C26.9411 11.7236 26.9709 11.6958 27.0306 11.6958C27.1798 11.6958 27.329 11.6958 27.4782 11.6958C27.717 11.6958 27.9557 11.6958 28.1945 11.6958C28.4929 11.6958 28.7615 11.7236 29.06 11.7236C29.0898 11.7513 29.1197 11.8069 29.1495 11.8347C29.3883 11.9737 29.627 12.0293 29.8658 12.0293H29.8359C29.5076 12.0571 29.1793 11.9737 28.8809 11.8625C27.9259 11.6124 27.0007 12.0849 26.0457 11.8903C21.4796 11.8069 16.9434 11.6958 12.3773 11.6124C10.3479 11.5846 8.52744 12.1126 6.94572 13.3077C6.49806 13.6412 6.08025 14.0303 5.60275 14.2804C4.79696 14.6417 4.79696 15.1975 5.00587 15.8368C4.94618 16.1147 4.91634 16.3648 4.91634 16.6427C4.91634 16.6705 4.91634 16.6983 4.91634 16.7261C4.94618 17.3931 5.15509 18.0045 5.33415 18.6437C5.42369 19.0884 5.51321 19.5331 5.60275 20.0055C5.60275 20.1445 5.63259 20.3112 5.69228 20.478C5.78181 21.0894 5.60275 21.7286 6.02056 22.2845C5.96087 22.8125 6.11009 23.3128 6.37869 23.7852C6.37869 24.2299 6.55775 24.5912 6.88603 24.9247C6.97556 25.3138 7.30384 25.5361 7.60228 25.7584C7.69181 25.8696 7.78134 25.953 7.84103 26.0642C8.43791 26.6756 9.21385 27.0369 10.0793 27.2592C11.0045 27.5649 11.9595 27.6483 12.9443 27.5649C16.7643 27.815 20.5843 27.7872 24.4043 28.0096C23.4792 28.4543 22.554 28.8155 21.8975 29.5381C21.42 30.0662 20.7932 30.1218 20.077 30.0662C19.1518 29.9828 18.1968 30.0106 17.2418 29.9828C14.8245 29.7883 12.3773 29.7049 9.95994 29.6493C8.9751 29.427 7.96041 29.4825 6.94572 29.4825C6.0504 29.3436 5.18493 29.3714 4.28962 29.6493L4.25978 29.8438V29.6771C3.96134 29.7049 3.6629 29.5937 3.39431 29.7883C3.00634 30.2607 3.03618 30.8166 2.85712 31.3724C2.7079 31.9004 2.52884 32.2895 1.9618 32.5674C1.51415 32.7898 1.33508 33.2344 1.24555 33.7069C0.947114 35.1521 0.887427 36.5973 1.09633 38.0702C1.12618 38.098 1.18586 38.098 1.24555 38.098C1.36493 38.2926 1.51415 38.4315 1.7529 38.4593C1.81259 38.5149 1.87227 38.5705 1.93196 38.6261C1.9618 38.7372 1.99165 38.7928 2.11102 38.765C2.64821 39.571 3.57337 39.7655 4.40899 40.0712C6.70697 40.7382 9.12431 40.6827 11.482 40.905C11.6909 41.4053 11.7207 41.8777 11.4521 42.3502C11.3328 42.4613 11.2432 42.5725 11.1238 42.6837C10.9448 42.7115 10.8553 42.8504 10.7657 42.9894C10.1092 43.5452 9.48244 44.1289 8.82588 44.6847C8.76619 44.7403 8.7065 44.7681 8.64681 44.8236C7.93056 45.2683 7.39337 45.8797 6.85618 46.4634C5.63259 47.575 5.51322 47.9641 6.16978 48.8535C6.16978 48.9646 6.19962 49.048 6.19962 49.1592C6.11009 49.4093 6.19962 49.6316 6.37869 49.8262C6.46822 50.2986 6.88603 50.3542 7.274 50.4932C7.51275 50.6044 7.7515 50.7155 7.99025 50.7989C8.34837 50.9101 8.73634 50.9379 9.12431 50.9656C10.4374 51.0212 11.661 50.5488 12.9443 50.4932C13.4218 50.5488 13.8993 50.4098 14.347 50.3264C15.1826 50.382 16.0182 50.2986 16.824 50.521C17.0031 50.5766 17.1821 50.6321 17.3314 50.6877C18.0775 51.1324 18.9131 50.9379 19.7189 50.9379C21.5393 50.9656 23.33 51.0768 25.1504 50.8545C25.9861 50.9101 26.8217 50.6599 27.6872 50.8267C27.5081 51.2436 27.2097 51.5493 27.4186 51.9939C27.5379 52.2163 27.4782 52.4108 27.329 52.6054C26.5829 53.6892 26.2248 54.9399 25.6578 56.0793C25.419 56.2739 25.2698 56.4962 25.1504 56.7741C24.7326 57.2188 24.285 57.6357 23.8671 58.0804C23.5986 58.4139 23.0912 58.4972 22.8525 58.9141C22.554 59.1365 22.2556 59.3588 21.9571 59.5811C21.1514 59.9424 21.2409 60.6094 21.2707 61.2486C21.2409 61.3042 21.2409 61.3876 21.2707 61.4432C21.42 61.9156 21.9273 62.0268 22.2854 62.2769C22.8525 62.7494 23.5389 62.9439 24.285 63.0551C25.2997 63.2496 26.3143 63.4442 27.329 63.0829C28.0154 62.9439 28.7018 62.805 29.3883 62.6382C29.4778 62.6382 29.5673 62.6104 29.6568 62.5826C30.0747 62.6104 30.4626 62.5548 30.8506 62.4159C32.6114 62.3047 34.3722 62.1936 36.1329 62.0824C36.6403 62.138 37.1178 62.1936 37.655 62.2491C37.4162 62.5548 37.2372 62.8328 37.0581 63.0829C36.1628 64.1946 36.2523 66.0288 37.2073 67.3628C37.3267 67.7519 37.5953 68.0854 37.8937 68.3633C38.0131 68.5301 38.1325 68.6968 38.2519 68.8636C38.2817 69.1137 38.2817 69.3638 38.3712 69.5862C38.7592 70.6145 38.7294 71.8651 40.1619 72.3098C40.3111 72.6433 40.5797 72.8934 40.908 73.1157C41.6541 74.0329 42.5792 74.6443 43.8923 74.6443C44.0714 74.811 44.2505 74.7555 44.4594 74.7277C44.7578 74.7832 45.0264 74.8388 45.3248 74.8666C47.2647 75.2001 49.1747 75.617 51.1742 75.5614C52.1292 75.6726 53.0842 75.8393 54.0392 75.8671C56.3969 75.9505 58.7247 76.0617 61.0824 76.1173C61.0824 76.1728 61.0824 76.3118 61.1122 76.3118C62.873 76.3118 64.6636 76.3118 66.4244 76.3118C67.9464 76.3118 69.4983 76.3118 71.0203 76.3118C71.3785 76.0339 71.9455 76.2562 72.3036 75.9505C74.5419 75.7838 76.7802 75.3947 79.0483 75.3391C86.2108 75.1723 93.4032 75.4225 100.566 75.3947C100.894 75.5892 101.252 75.5059 101.61 75.5059C105.788 75.5892 109.966 75.5058 114.174 75.5614C118.949 75.617 123.724 75.5336 128.499 75.4781C128.708 75.4781 128.887 75.4225 129.096 75.3669C134.259 75.2835 139.422 75.2001 144.615 75.089C145.391 75.0612 146.197 74.95 146.973 74.8666C147.182 74.8666 147.391 74.8666 147.6 74.8388C151.33 74.4498 155.06 74.3108 158.791 74.422C162.372 74.5331 165.953 74.4498 169.535 74.4775C171.863 74.4775 174.16 74.5609 176.488 74.5609C178.518 74.5609 180.547 74.5053 182.576 74.5609C184.576 74.6443 186.576 74.5331 188.575 74.5609C190.575 74.5887 192.574 74.6999 194.574 74.6443C197.677 74.5887 200.811 74.4498 203.915 74.3664C206.541 74.3108 209.137 74.2552 211.734 74.0329C212.599 74.0051 213.495 74.0885 214.36 74.0607C217.046 73.9495 219.702 73.7828 222.388 73.7828C222.567 73.7828 222.746 73.7828 222.895 73.7828C222.985 73.7828 223.074 73.6994 223.164 73.6716C223.433 73.6716 223.671 73.616 223.94 73.5882C224.119 73.5882 224.298 73.5604 224.477 73.5604C226.805 73.5048 229.103 73.4492 231.431 73.3659C231.849 73.3659 232.266 73.3937 232.654 73.2269C233.46 73.1713 234.296 73.1157 235.102 73.0602C235.818 73.088 236.534 73.0602 237.25 72.8934C237.579 72.8656 237.937 72.8656 238.265 72.8378C238.265 72.7544 238.295 72.6711 238.325 72.6155C238.325 72.6989 238.295 72.7822 238.265 72.8378C238.444 72.8378 238.623 72.8378 238.772 72.8378C239.13 72.7822 239.489 72.7267 239.817 72.6989C239.847 72.6711 239.906 72.6433 239.936 72.5877C240.085 72.6433 240.205 72.6155 240.354 72.5877C240.563 72.4765 240.593 72.3098 240.593 72.1152C240.563 71.6706 240.324 71.3649 240.056 71.0314C239.727 70.6145 239.757 70.3088 240.414 70.3088C240.891 70.3088 241.279 70.0586 241.727 70.0031C241.787 71.5872 242.413 71.9763 243.816 71.2537C244.443 70.948 244.622 71.3371 244.95 71.5872C245.159 71.5872 245.368 71.6428 245.487 71.4204C246.293 71.1981 247.039 70.9202 247.785 70.5867C247.905 70.5311 248.024 70.4755 248.143 70.4199C248.322 70.3643 248.472 70.281 248.651 70.2254C248.8 70.2532 248.919 70.1698 249.009 70.0864C249.218 70.0864 249.397 70.1698 249.546 70.0309C250.053 69.9197 250.531 69.8919 250.978 69.614C251.098 69.614 251.187 69.3916 251.307 69.3361C251.456 69.3361 251.575 69.2527 251.665 69.1137C252.232 68.8914 252.023 68.5301 251.844 68.141C251.187 66.668 249.994 65.5842 248.68 64.6114C248.442 64.3335 248.113 64.2224 247.755 64.139C247.636 64.0834 247.546 64 247.427 63.9444C247.099 63.5831 246.651 63.4164 246.174 63.3052C245.308 63.0829 244.383 63.4442 243.517 63.2496V63.4998C243.219 63.4998 242.891 63.0551 242.622 63.3608C241.727 63.4998 240.891 62.9995 239.996 63.0829C239.697 63.0273 239.399 62.9161 239.101 62.8883C239.011 62.8883 238.951 62.8606 238.862 62.8606C238.713 62.8328 238.534 62.805 238.384 62.805C238.086 62.5548 238.265 62.2769 238.325 61.999C238.354 61.7489 238.504 61.5265 238.325 61.3598C237.758 60.8595 237.907 60.1647 238.205 59.8868C238.235 59.8868 238.265 59.8868 238.295 59.8868C238.623 60.1647 238.922 59.8868 239.25 59.8312C239.369 59.8312 239.518 59.7757 239.638 59.7479C239.996 59.7479 240.354 59.7201 240.682 59.6923C240.921 59.6923 241.16 59.6923 241.399 59.7757C242.025 59.7201 242.622 59.8312 243.249 59.859C245.577 60.0258 247.905 60.0258 250.232 60.2203C251.933 60.3593 253.664 60.3871 255.395 60.1647C257.246 60.1092 259.066 60.3871 260.887 60.6372C264.438 61.1097 268.019 61.5266 271.571 61.9712C272.735 62.1102 273.869 62.2769 275.033 62.4437C275.212 62.4715 275.391 62.4715 275.54 62.4993C276.734 62.6104 277.927 62.6938 279.121 62.805C280.375 62.8884 281.628 63.1107 282.911 62.8883C283.21 62.8328 283.538 62.805 283.538 62.4437C283.508 61.7489 283.687 61.0263 283.389 60.3315C283.836 59.7479 284.433 59.2754 284.612 58.5528C286.015 58.4694 287.388 58.8307 288.82 58.8863C290.551 59.0809 292.282 59.3032 293.983 59.4977C294.013 59.5255 294.073 59.5533 294.133 59.5533C294.461 59.7757 294.849 59.6923 295.207 59.6645C295.296 59.5811 295.386 59.4422 295.296 59.3866C294.61 58.4694 295.416 58.0248 295.983 57.5245C296.251 57.2744 296.58 57.0798 296.908 56.8853C297.445 56.5518 297.594 56.1349 297.594 55.4957C297.565 54.4396 298.012 54.1339 298.908 54.0783C298.908 53.856 298.908 53.6337 298.908 53.4113C298.967 53.3835 298.549 53.3557 298.669 53.05ZM11.8103 27.426C11.8103 27.4537 11.8103 27.4537 11.8103 27.4815H11.7804C11.7804 27.4537 11.7804 27.426 11.8103 27.426ZM233.818 62.9439C233.848 62.9439 233.878 62.9439 233.848 62.9161C233.818 62.805 233.967 62.9995 233.848 62.9717C233.52 63.0551 233.192 63.0273 232.893 62.9995C233.192 63.0273 233.52 62.9717 233.818 62.9439ZM229.103 62.9995C229.192 62.8883 229.222 62.7494 229.282 62.6382C229.551 62.666 229.819 62.6382 230.058 62.4715C230.088 62.5271 230.118 62.5548 230.177 62.6104C230.595 62.8328 231.043 62.8606 231.49 62.666C231.52 62.6382 231.52 62.6104 231.52 62.5826C231.52 62.5826 231.52 62.5826 231.52 62.6104C231.61 62.6104 231.729 62.6382 231.819 62.6382C231.849 62.6382 231.849 62.6382 231.878 62.6382C231.878 62.666 231.849 62.6938 231.849 62.7216C232.028 62.8606 232.237 62.9439 232.416 62.9995C232.087 62.9717 231.789 62.9439 231.461 62.9995C231.371 63.0551 231.341 63.0829 231.311 63.1385C230.595 63.0273 229.879 63.1941 229.192 63.2219L229.163 63.1941C229.133 63.1663 229.103 63.1385 229.073 63.1107C229.073 63.0551 229.073 63.0273 229.103 62.9995ZM186.098 2.58004C186.068 2.60783 186.038 2.60784 186.008 2.63563V2.60784L185.979 2.58004C186.008 2.58004 186.068 2.58004 186.098 2.58004ZM225.85 73.3937C225.85 73.4215 225.85 73.4215 225.85 73.3937V73.3937Z" fill="#1FBECD"/>
</svg>
