<svg width="253" height="96" viewBox="0 0 253 96" fill="none" xmlns="http://www.w3.org/2000/svg">
<path d="M252.744 66.5061C252.845 66.0527 252.718 65.6342 252.668 65.2157C252.617 65.146 252.592 65.0762 252.541 65.0065C252.389 64.5182 252.364 63.9602 252.11 63.5417C252.06 62.8791 251.68 62.4955 251.35 62.1118C251.046 61.519 250.742 60.8563 250.844 60.124C251.021 58.9382 250.793 57.8571 250.464 56.8108C250.236 56.0436 249.932 55.2763 250.616 54.6486C250.692 54.5788 250.666 54.4045 250.59 54.2998C250.489 54.0906 250.413 53.8813 250.312 53.6721C250.033 52.8002 249.602 52.033 249.121 51.3703C248.741 50.8472 248.462 50.1846 247.905 49.9056C247.829 49.7661 247.728 49.6963 247.601 49.6963C247.626 49.801 247.626 49.9056 247.626 49.9753C247.626 49.8707 247.626 49.801 247.601 49.6963C247.297 49.3825 247.12 48.964 246.968 48.4757C246.74 47.7085 246.588 46.8366 246.106 46.2437C246.03 45.7555 245.752 45.4765 245.498 45.1975C245.397 45.0231 245.296 44.8138 245.169 44.6743C244.308 43.5583 243.117 42.8957 242.762 41.1171C242.56 40.6288 242.382 40.1406 242.18 39.6523C241.572 38.3271 240.786 37.3157 239.798 36.5136C239.722 36.2695 239.672 35.9207 239.545 35.7812C238.886 35.1535 238.962 34.2118 238.962 33.3051C238.962 32.2937 238.861 31.3172 238.608 30.3756C238.608 30.3407 238.608 30.3058 238.582 30.2361C238.38 28.6318 238.126 27.0625 237.366 25.7372C237.316 25.1792 237.037 24.8305 236.809 24.4468C236.708 24.0981 236.48 23.9237 236.302 23.6796C235.745 22.7728 235.137 22.0405 234.225 22.0056C234.073 22.0056 233.921 22.0056 233.769 22.0405C233.617 21.9358 233.541 21.6568 233.313 21.7963C233.161 21.6917 233.009 21.7615 232.857 21.8312C232.35 21.6568 231.844 21.4825 231.337 21.3778C229.893 20.9942 228.398 20.9245 226.929 20.785C226.372 20.7501 226.27 20.506 226.372 19.7736C226.473 18.8668 226.498 17.9601 226.574 17.0533H226.65L226.701 16.9836C226.752 16.9138 226.802 16.879 226.853 16.8092C227.005 16.5651 226.929 16.321 226.929 16.042C226.904 16.0071 226.904 15.9722 226.878 15.9373C227.081 15.4491 226.828 15.1003 226.65 14.7167C226.397 14.1936 226.22 13.6705 226.752 13.252C226.98 13.0776 227.005 12.7637 226.878 12.4498C226.676 11.9965 226.625 11.3338 226.118 11.1943C225.916 11.0548 225.764 10.7758 225.51 10.8107C225.358 10.741 225.206 10.6712 225.054 10.6015C224.548 9.9737 224.092 9.31108 223.712 8.50895C223.484 7.77658 223.154 7.11395 222.673 6.6257C222.242 5.99795 221.71 5.54458 221.153 5.19583C221.077 5.0912 220.976 4.98658 220.849 5.05633C219.582 4.1147 218.214 3.90545 216.796 4.01008C214.085 3.31258 211.349 3.13821 208.588 3.34746C208.309 3.31258 208.03 3.2777 207.726 3.2777C204.788 2.9987 201.874 2.54533 198.936 2.54533C198.049 2.23146 197.137 2.33608 196.25 2.33608C196.022 2.09196 195.769 2.16171 195.516 2.19658C194.148 2.23146 192.78 2.30121 191.412 2.30121C189.005 2.33608 186.598 2.33608 184.217 2.37096C184.065 2.37096 183.913 2.37096 183.761 2.37096C183.052 2.37096 182.368 2.37096 181.658 2.37096C181.456 2.37096 181.253 2.37096 181.05 2.37096C181 2.37096 180.949 2.37096 180.898 2.37096C179.15 2.19658 177.402 2.4407 175.629 2.5802C174.666 2.47558 173.729 2.51045 172.766 2.5802C172.614 2.5802 172.462 2.54533 172.31 2.54533C167.928 2.61508 163.52 2.89408 159.137 2.99871C158.149 3.03358 157.136 3.34746 156.148 3.34746C154.501 3.34746 152.854 3.10333 151.233 3.34746C151.132 3.34746 151.03 3.20796 150.929 3.20796C143 3.83571 135.02 3.73108 127.09 4.49833C121.669 5.02145 116.248 4.70758 110.826 4.18445C102.72 3.4172 94.5877 2.8592 86.481 2.40583C83.3397 2.23145 80.1984 2.05708 77.057 1.8827C75.4104 1.77808 73.789 1.6037 72.1424 1.70833C72.041 1.67345 71.965 1.56883 71.8637 1.56883C68.2917 1.3247 64.745 1.08058 61.173 0.871328C55.1437 0.522578 49.1144 0.313328 43.1104 0.173828C42.4264 0.173828 41.7424 0.17383 41.0584 0.557455C40.501 0.87133 39.9184 0.975955 39.285 0.906205C36.549 0.59233 33.7877 1.32471 31.0264 0.557455C29.8357 0.208705 28.645 1.18521 27.353 0.97596C26.0104 0.731835 24.6677 0.871328 23.2997 0.871328C21.197 0.627203 19.0944 0.417955 16.9664 0.906205C16.6117 1.08058 16.2317 0.97596 15.9277 1.32471C15.573 1.49908 15.6237 1.91758 15.6744 2.26633C15.725 2.5802 15.801 2.92895 15.5984 3.1382C14.813 3.94033 14.7624 5.19583 14.6104 6.52108C14.6104 5.61433 14.6357 4.84708 14.585 4.07983C14.5344 3.59158 14.585 3.03358 14.0784 2.85921C13.901 3.03358 13.749 3.20796 13.7744 3.52183C13.8757 5.33533 13.6984 7.21858 14.4077 8.89258C14.4077 9.24133 14.4077 9.5552 14.4077 9.90395C14.357 10.2876 14.5344 10.4968 14.6864 10.741C15.117 10.9851 15.5984 10.9153 15.953 11.4733C16.6117 12.4847 16.9917 12.3452 17.4477 11.1595C17.5997 10.7758 17.7264 10.3573 17.701 9.86909C17.9544 9.55521 18.233 9.38083 18.5877 9.45058C19.069 9.48546 19.525 9.48546 19.9557 9.17159C20.6397 8.64846 20.8677 8.78795 21.2984 9.90395C21.2477 10.5317 21.2984 11.1246 21.5517 11.6477C21.9064 12.3452 21.729 12.7288 21.2477 13.0776C20.8677 13.3566 20.513 13.7053 20.8677 14.4377C20.969 14.4377 21.0704 14.4377 21.1717 14.4377C21.4757 14.5075 21.7544 14.6121 22.0584 14.6818C22.0837 14.647 22.109 14.6121 22.1597 14.6121C22.2864 14.6121 22.413 14.6121 22.5397 14.6121C22.7424 14.6121 22.945 14.6121 23.1477 14.6121C23.401 14.6121 23.629 14.647 23.8824 14.647C23.9077 14.6818 23.933 14.7516 23.9584 14.7865C24.161 14.9608 24.3637 15.0306 24.5664 15.0306H24.541C24.2624 15.0655 23.9837 14.9608 23.7304 14.8213C22.9197 14.5075 22.1344 15.1003 21.3237 14.8562C17.4477 14.7516 13.597 14.6121 9.72102 14.5075C7.99836 14.4726 6.45302 15.1352 5.11036 16.6348C4.73036 17.0533 4.37569 17.5416 3.97036 17.8555C3.28636 18.3088 3.28636 19.0063 3.46369 19.8085C3.41302 20.1572 3.38769 20.4711 3.38769 20.8198C3.38769 20.8547 3.38769 20.8896 3.38769 20.9245C3.41302 21.7615 3.59036 22.5287 3.74236 23.3308C3.81836 23.8888 3.89436 24.4468 3.97036 25.0397C3.97036 25.2141 3.99569 25.4233 4.04636 25.6326C4.12236 26.3998 3.97036 27.202 4.32502 27.8995C4.27436 28.5621 4.40102 29.1898 4.62902 29.7827C4.62902 30.3407 4.78102 30.7941 5.05969 31.2126C5.13569 31.7008 5.41436 31.9798 5.66769 32.2588C5.74369 32.3983 5.81969 32.503 5.87036 32.6425C6.37702 33.4097 7.03569 33.8631 7.77036 34.1421C8.55569 34.5257 9.36636 34.6303 10.2024 34.5257C13.445 34.8396 16.6877 34.8047 19.9304 35.0837C19.145 35.6417 18.3597 36.0951 17.8024 37.0018C17.397 37.6645 16.865 37.7342 16.257 37.6645C15.4717 37.5598 14.661 37.5947 13.8504 37.5598C11.7984 37.3157 9.72102 37.2111 7.66902 37.1413C6.83302 36.8623 5.97169 36.9321 5.11036 36.9321C4.35036 36.7577 3.61569 36.7926 2.85569 37.1413L2.83036 37.3855V37.1762C2.57702 37.2111 2.32369 37.0716 2.09569 37.3157C1.76636 37.9086 1.79169 38.6061 1.63969 39.3036C1.51302 39.9662 1.36102 40.4545 0.879691 40.8032C0.499691 41.0822 0.347691 41.6402 0.271691 42.2331C0.0183573 44.0466 -0.0323094 45.8601 0.145024 47.7085C0.170357 47.7433 0.221024 47.7433 0.271691 47.7433C0.373024 47.9875 0.499692 48.1618 0.702358 48.1967C0.753025 48.2665 0.803691 48.3362 0.854358 48.406C0.879691 48.5455 0.905024 48.6152 1.00636 48.5803C1.46236 49.5917 2.24769 49.8358 2.95702 50.2195C4.90769 51.0565 6.95969 50.9867 8.96102 51.2657C9.13836 51.8935 9.16369 52.4863 8.93569 53.0792C8.83436 53.2187 8.75836 53.3582 8.65702 53.4977C8.50502 53.5326 8.42902 53.707 8.35302 53.8813C7.79569 54.5788 7.26369 55.3112 6.70636 56.0087C6.65569 56.0785 6.60502 56.1133 6.55436 56.1831C5.94636 56.7411 5.49036 57.5083 5.03436 58.2407C3.99569 59.6357 3.89436 60.124 4.45169 61.24C4.45169 61.3795 4.47702 61.4841 4.47702 61.6236C4.40102 61.9375 4.47703 62.2165 4.62902 62.4606C4.70502 63.0535 5.05969 63.1232 5.38902 63.2976C5.59169 63.4371 5.79436 63.5766 5.99702 63.6812C6.30102 63.8207 6.63036 63.8556 6.95969 63.8905C8.07436 63.9602 9.11302 63.3673 10.2024 63.2976C10.6077 63.3673 11.013 63.193 11.393 63.0883C12.1024 63.1581 12.8117 63.0535 13.4957 63.3325C13.6477 63.4022 13.7997 63.472 13.9264 63.5417C14.5597 64.0997 15.269 63.8556 15.953 63.8556C17.4984 63.8905 19.0184 64.03 20.5637 63.751C21.273 63.8207 21.9824 63.5068 22.717 63.7161C22.565 64.2392 22.3117 64.6228 22.489 65.1808C22.5904 65.4598 22.5397 65.704 22.413 65.9481C21.7797 67.3082 21.4757 68.8776 20.9944 70.3075C20.7917 70.5516 20.665 70.8306 20.5637 71.1793C20.209 71.7373 19.829 72.2605 19.4744 72.8185C19.2464 73.237 18.8157 73.3416 18.613 73.8647C18.3597 74.1437 18.1064 74.4227 17.853 74.7017C17.169 75.1551 17.245 75.9921 17.2704 76.7942C17.245 76.864 17.245 76.9686 17.2704 77.0383C17.397 77.6312 17.8277 77.7707 18.1317 78.0846C18.613 78.6775 19.1957 78.9216 19.829 79.0611C20.6904 79.3052 21.5517 79.5493 22.413 79.096C22.9957 78.9216 23.5784 78.7472 24.161 78.538C24.237 78.538 24.313 78.5031 24.389 78.4682C24.7437 78.5031 25.073 78.4333 25.4024 78.259C26.897 78.1195 28.3917 77.98 29.8864 77.8405C30.317 77.9102 30.7224 77.98 31.1784 78.0497C30.9757 78.4333 30.8237 78.7821 30.6717 79.096C29.9117 80.491 29.9877 82.7927 30.7984 84.4667C30.8997 84.955 31.1277 85.3735 31.381 85.7222C31.4824 85.9315 31.5837 86.1407 31.685 86.35C31.7104 86.6638 31.7104 86.9777 31.7864 87.2567C32.1157 88.5471 32.0904 90.1165 33.3064 90.6745C33.433 91.093 33.661 91.4068 33.9397 91.6858C34.573 92.8367 35.3584 93.604 36.473 93.604C36.625 93.8132 36.777 93.7435 36.9544 93.7086C37.2077 93.7783 37.4357 93.8481 37.689 93.883C39.3357 94.3015 40.957 94.8246 42.6544 94.7548C43.465 94.8943 44.2757 95.1036 45.0864 95.1385C47.0877 95.2431 49.0637 95.3826 51.065 95.4523C51.065 95.5221 51.065 95.6965 51.0904 95.6965C52.585 95.6965 54.105 95.6965 55.5997 95.6965C56.8917 95.6965 58.209 95.6965 59.501 95.6965C59.805 95.3477 60.2864 95.6267 60.5904 95.2431C62.4904 95.0338 64.3904 94.5456 66.3157 94.4758C72.3957 94.2666 78.501 94.5805 84.581 94.5456C84.8597 94.7897 85.1637 94.6851 85.4677 94.6851C89.0144 94.7897 92.561 94.6851 96.133 94.7548C100.186 94.8246 104.24 94.72 108.293 94.6502C108.47 94.6502 108.622 94.5805 108.8 94.5107C113.182 94.4061 117.565 94.3015 121.973 94.162C122.632 94.1271 123.316 93.9876 123.974 93.883C124.152 93.883 124.329 93.883 124.506 93.8481C127.673 93.3598 130.84 93.1855 134.006 93.325C137.046 93.4645 140.086 93.3598 143.126 93.3947C145.102 93.3947 147.053 93.4993 149.029 93.4993C150.752 93.4993 152.474 93.4296 154.197 93.4993C155.894 93.604 157.592 93.4645 159.289 93.4993C160.986 93.5342 162.684 93.6737 164.381 93.604C167.016 93.5342 169.676 93.3598 172.31 93.2552C174.54 93.1855 176.744 93.1157 178.948 92.8367C179.682 92.8018 180.442 92.9065 181.177 92.8716C183.457 92.7321 185.712 92.5229 187.992 92.5229C188.144 92.5229 188.296 92.5229 188.422 92.5229C188.498 92.5229 188.574 92.4182 188.65 92.3833C188.878 92.3833 189.081 92.3136 189.309 92.2787C189.461 92.2787 189.613 92.2439 189.765 92.2439C191.741 92.1741 193.692 92.1043 195.668 91.9997C196.022 91.9997 196.377 92.0346 196.706 91.8253C197.39 91.7556 198.1 91.6858 198.784 91.6161C199.392 91.651 200 91.6161 200.608 91.4068C200.886 91.372 201.19 91.372 201.469 91.3371C201.469 91.2325 201.494 91.1278 201.52 91.0581C201.52 91.1627 201.494 91.2673 201.469 91.3371C201.621 91.3371 201.773 91.3371 201.9 91.3371C202.204 91.2673 202.508 91.1976 202.786 91.1627C202.812 91.1278 202.862 91.093 202.888 91.0232C203.014 91.093 203.116 91.0581 203.242 91.0232C203.42 90.8837 203.445 90.6745 203.445 90.4304C203.42 89.8723 203.217 89.4887 202.989 89.0702C202.71 88.5471 202.736 88.1635 203.293 88.1635C203.698 88.1635 204.028 87.8496 204.408 87.7798C204.458 89.7677 204.99 90.256 206.181 89.3492C206.713 88.9656 206.865 89.4538 207.144 89.7677C207.321 89.7677 207.498 89.8375 207.6 89.5585C208.284 89.2795 208.917 88.9307 209.55 88.5122C209.652 88.4425 209.753 88.3727 209.854 88.303C210.006 88.2332 210.133 88.1286 210.285 88.0589C210.412 88.0937 210.513 87.9891 210.589 87.8845C210.766 87.8845 210.918 87.9891 211.045 87.8147C211.476 87.6752 211.881 87.6404 212.261 87.2916C212.362 87.2916 212.438 87.0126 212.54 86.9428C212.666 86.9428 212.768 86.8382 212.844 86.6638C213.325 86.3848 213.148 85.9315 212.996 85.4432C212.438 83.5948 211.425 82.2347 210.31 81.0141C210.108 80.6653 209.829 80.5258 209.525 80.4212C209.424 80.3515 209.348 80.2468 209.246 80.1771C208.968 79.7237 208.588 79.5145 208.182 79.375C207.448 79.096 206.662 79.5493 205.928 79.3052V79.6191C205.674 79.6191 205.396 79.0611 205.168 79.4447C204.408 79.6191 203.698 78.9913 202.938 79.096C202.685 79.0262 202.432 78.8867 202.178 78.8518C202.102 78.8518 202.052 78.817 201.976 78.817C201.849 78.7821 201.697 78.7472 201.57 78.7472C201.317 78.4333 201.469 78.0846 201.52 77.7358C201.545 77.422 201.672 77.143 201.52 76.9337C201.038 76.306 201.165 75.4341 201.418 75.0854C201.444 75.0854 201.469 75.0854 201.494 75.0854C201.773 75.4341 202.026 75.0853 202.305 75.0156C202.406 75.0156 202.533 74.9458 202.634 74.911C202.938 74.911 203.242 74.8761 203.521 74.8412C203.724 74.8412 203.926 74.8412 204.129 74.9458C204.661 74.8761 205.168 75.0156 205.7 75.0505C207.676 75.2597 209.652 75.2597 211.628 75.5038C213.072 75.6782 214.541 75.7131 216.01 75.4341C217.581 75.3643 219.126 75.7131 220.672 76.027C223.686 76.6198 226.726 77.143 229.741 77.701C230.729 77.8753 231.692 78.0846 232.68 78.2938C232.832 78.3287 232.984 78.3287 233.11 78.3636C234.124 78.5031 235.137 78.6077 236.15 78.7472C237.214 78.8518 238.278 79.1308 239.368 78.8518C239.621 78.7821 239.9 78.7472 239.9 78.2938C239.874 77.422 240.026 76.5152 239.773 75.6433C240.153 74.911 240.66 74.3181 240.812 73.4113C242.002 73.3067 243.168 73.7601 244.384 73.8298C245.853 74.074 247.322 74.353 248.766 74.5971C248.792 74.632 248.842 74.6668 248.893 74.6668C249.172 74.9458 249.501 74.8412 249.805 74.8063C249.881 74.7017 249.957 74.5273 249.881 74.4576C249.298 73.3067 249.982 72.7487 250.464 72.121C250.692 71.8071 250.97 71.563 251.249 71.3188C251.705 70.9003 251.832 70.3772 251.832 69.5751C251.806 68.2498 252.186 67.8662 252.946 67.7965C252.946 67.5175 252.946 67.2385 252.946 66.9595C252.997 66.9246 252.642 66.8897 252.744 66.5061ZM9.23969 34.3513C9.23969 34.3862 9.23969 34.3862 9.23969 34.4211H9.21436C9.21436 34.3862 9.21436 34.3513 9.23969 34.3513ZM197.694 78.9216C197.72 78.9216 197.745 78.9216 197.72 78.8867C197.694 78.7472 197.821 78.9913 197.72 78.9565C197.441 79.0611 197.162 79.0262 196.909 78.9913C197.162 79.0262 197.441 78.9565 197.694 78.9216ZM193.692 78.9913C193.768 78.8518 193.793 78.6775 193.844 78.538C194.072 78.5728 194.3 78.538 194.502 78.3287C194.528 78.3985 194.553 78.4333 194.604 78.5031C194.958 78.7821 195.338 78.817 195.718 78.5728C195.744 78.538 195.744 78.5031 195.744 78.4682C195.744 78.4682 195.744 78.4682 195.744 78.5031C195.82 78.5031 195.921 78.538 195.997 78.538C196.022 78.538 196.022 78.538 196.048 78.538C196.048 78.5728 196.022 78.6077 196.022 78.6426C196.174 78.817 196.352 78.9216 196.504 78.9913C196.225 78.9565 195.972 78.9216 195.693 78.9913C195.617 79.0611 195.592 79.096 195.566 79.1657C194.958 79.0262 194.35 79.2355 193.768 79.2703L193.742 79.2355C193.717 79.2006 193.692 79.1657 193.666 79.1308C193.666 79.0611 193.666 79.0262 193.692 78.9913ZM157.186 3.17308C157.161 3.20796 157.136 3.20796 157.11 3.24284V3.20796L157.085 3.17308C157.11 3.17308 157.161 3.17308 157.186 3.17308ZM190.93 92.0346C190.93 92.0695 190.93 92.0695 190.93 92.0346V92.0346Z" fill="#EBEBEB"/>
</svg>
