<svg width="460" height="77" viewBox="0 0 460 77" fill="none" xmlns="http://www.w3.org/2000/svg">
<path d="M458.849 53.0892C459.032 52.7268 458.803 52.3923 458.711 52.0578C458.619 52.0021 458.573 51.9463 458.481 51.8906C458.206 51.5003 458.16 51.0543 457.701 50.7198C457.609 50.1902 456.92 49.8836 456.323 49.5769C455.772 49.1031 455.221 48.5734 455.405 47.9881C455.726 47.0403 455.313 46.1762 454.716 45.3399C454.303 44.7267 453.752 44.1134 454.992 43.6117C455.129 43.5559 455.083 43.4166 454.946 43.3329C454.762 43.1657 454.624 42.9984 454.441 42.8312C453.936 42.1343 453.155 41.5211 452.283 40.9914C451.594 40.5733 451.089 40.0437 450.079 39.8207C449.941 39.7092 449.757 39.6534 449.528 39.6534C449.573 39.7371 449.573 39.8207 449.573 39.8764C449.573 39.7928 449.573 39.7371 449.528 39.6534C448.977 39.4026 448.655 39.0681 448.38 38.6778C447.966 38.0646 447.691 37.3677 446.818 36.8938C446.681 36.5036 446.176 36.2806 445.716 36.0576C445.533 35.9182 445.349 35.7509 445.12 35.6394C443.558 34.7474 441.4 34.2178 440.757 32.7962C440.39 32.4059 440.069 32.0157 439.701 31.6254C438.599 30.5662 437.176 29.7578 435.385 29.1167C435.247 28.9216 435.156 28.6428 434.926 28.5313C433.732 28.0296 433.87 27.2769 433.87 26.5522C433.87 25.7438 433.686 24.9633 433.227 24.2107C433.227 24.1828 433.227 24.1549 433.181 24.0992C432.814 22.8169 432.355 21.5626 430.977 20.5033C430.885 20.0573 430.38 19.7786 429.967 19.4719C429.783 19.1932 429.37 19.0538 429.049 18.8587C428.039 18.1339 426.937 17.5486 425.284 17.5207C425.008 17.5207 424.733 17.5207 424.457 17.5486C424.182 17.4649 424.044 17.2419 423.631 17.3534C423.355 17.2698 423.079 17.3256 422.804 17.3813C421.886 17.2419 420.967 17.1026 420.049 17.0189C417.432 16.7123 414.723 16.6566 412.06 16.5451C411.049 16.5172 410.866 16.3221 411.049 15.7367C411.233 15.0119 411.279 14.2872 411.417 13.5624H411.554L411.646 13.5067C411.738 13.4509 411.83 13.4231 411.922 13.3673C412.197 13.1722 412.06 12.977 412.06 12.754C412.014 12.7262 412.014 12.6983 411.968 12.6704C412.335 12.2802 411.876 12.0014 411.554 11.6948C411.095 11.2767 410.774 10.8585 411.738 10.524C412.151 10.3847 412.197 10.1338 411.968 9.88293C411.6 9.52055 411.509 8.99093 410.59 8.87943C410.223 8.76793 409.947 8.54492 409.488 8.5728C409.213 8.51705 408.937 8.4613 408.662 8.40555C407.743 7.9038 406.917 7.37417 406.228 6.73305C405.815 6.14767 405.218 5.61805 404.346 5.2278C403.565 4.72605 402.601 4.36367 401.591 4.08492C401.453 4.0013 401.269 3.91767 401.04 3.97342C398.744 3.2208 396.264 3.05355 393.693 3.13717C388.78 2.57967 383.821 2.4403 378.816 2.60755C378.311 2.57967 377.806 2.5518 377.255 2.5518C371.928 2.3288 366.648 1.96643 361.322 1.96643C359.715 1.71555 358.062 1.79918 356.454 1.79918C356.041 1.60405 355.582 1.6598 355.123 1.68768C352.643 1.71555 350.164 1.7713 347.684 1.7713C343.322 1.79917 338.96 1.79918 334.644 1.82705C334.369 1.82705 334.093 1.82705 333.818 1.82705C332.532 1.82705 331.292 1.82705 330.006 1.82705C329.639 1.82705 329.272 1.82705 328.904 1.82705C328.813 1.82705 328.721 1.82705 328.629 1.82705C325.461 1.68768 322.292 1.8828 319.078 1.9943C317.333 1.91067 315.635 1.93855 313.89 1.9943C313.614 1.9943 313.339 1.96643 313.063 1.96643C305.12 2.02218 297.13 2.24517 289.187 2.3288C287.396 2.35667 285.559 2.60755 283.768 2.60755C280.784 2.60755 277.799 2.41242 274.861 2.60755C274.677 2.60755 274.493 2.49605 274.31 2.49605C259.938 2.9978 245.474 2.91417 231.102 3.52742C221.276 3.94555 211.45 3.69467 201.623 3.27655C186.93 2.6633 172.191 2.2173 157.498 1.85492C151.804 1.71555 146.11 1.57617 140.417 1.4368C137.432 1.35317 134.493 1.2138 131.509 1.29742C131.325 1.26955 131.187 1.18592 131.004 1.18592C124.529 0.990798 118.101 0.795673 111.627 0.628423C100.699 0.349673 89.7705 0.182423 78.8882 0.0709229C77.6485 0.0709229 76.4087 0.0709245 75.169 0.37755C74.1588 0.628425 73.1027 0.71205 71.9548 0.6563C66.9958 0.405425 61.9909 0.9908 56.9859 0.37755C54.8279 0.0987996 52.6698 0.879303 50.328 0.712053C47.8944 0.516928 45.4609 0.628423 42.9814 0.628423C39.1703 0.433298 35.3592 0.26605 31.5022 0.6563C30.8594 0.795675 30.1706 0.712053 29.6196 0.990803C28.9768 1.13018 29.0686 1.46467 29.1604 1.74342C29.2523 1.9943 29.39 2.27305 29.0227 2.4403C27.5993 3.08142 27.5074 4.08493 27.2319 5.14418C27.2319 4.41943 27.2779 3.80618 27.186 3.19293C27.0942 2.80268 27.186 2.35668 26.2677 2.2173C25.9463 2.35668 25.6708 2.49605 25.7167 2.74692C25.9004 4.19642 25.5789 5.70167 26.8646 7.03967C26.8646 7.31842 26.8646 7.5693 26.8646 7.84805C26.7728 8.15467 27.0942 8.32193 27.3697 8.51705C28.1503 8.71218 29.0227 8.65642 29.6655 9.10242C30.8594 9.9108 31.5481 9.7993 32.3746 8.85155C32.6501 8.54492 32.8797 8.21043 32.8338 7.82018C33.2929 7.5693 33.798 7.42993 34.4409 7.48568C35.3133 7.51355 36.1398 7.51355 36.9204 7.26268C38.1601 6.84455 38.5734 6.95605 39.3539 7.84805C39.2621 8.3498 39.3539 8.82367 39.8131 9.2418C40.4559 9.7993 40.1345 10.1059 39.2621 10.3847C38.5734 10.6077 37.9305 10.8864 38.5734 11.4718C38.757 11.4718 38.9407 11.4718 39.1244 11.4718C39.6754 11.5275 40.1804 11.6112 40.7314 11.6669C40.7774 11.6391 40.8233 11.6112 40.9151 11.6112C41.1447 11.6112 41.3743 11.6112 41.6039 11.6112C41.9712 11.6112 42.3385 11.6112 42.7059 11.6112C43.165 11.6112 43.5783 11.639 44.0374 11.639C44.0834 11.6669 44.1293 11.7227 44.1752 11.7505C44.5425 11.8899 44.9099 11.9457 45.2772 11.9457H45.2313C44.7262 11.9736 44.2211 11.8899 43.7619 11.7784C42.2926 11.5275 40.8692 12.0014 39.3999 11.8063C32.3746 11.7227 25.3953 11.6112 18.37 11.5276C15.2477 11.4997 12.4468 12.0293 10.0132 13.2279C9.32444 13.5624 8.68161 13.9527 7.94694 14.2036C6.70719 14.5659 6.70719 15.1234 7.02861 15.7646C6.93678 16.0433 6.89086 16.2942 6.89086 16.5729C6.89086 16.6008 6.89086 16.6287 6.89086 16.6565C6.93678 17.3256 7.2582 17.9388 7.5337 18.5799C7.67145 19.0259 7.80919 19.4719 7.94694 19.9458C7.94694 20.0852 7.99286 20.2524 8.08469 20.4197C8.22245 21.0329 7.94694 21.6741 8.58978 22.2316C8.49794 22.7612 8.72753 23.2629 9.14078 23.7368C9.14078 24.1828 9.41628 24.5452 9.92136 24.8797C10.0591 25.2699 10.5642 25.4929 11.0234 25.7159C11.1611 25.8274 11.2989 25.9111 11.3907 26.0226C12.309 26.6358 13.5029 26.9982 14.8344 27.2212C16.2579 27.5278 17.7272 27.6114 19.2424 27.5278C25.1198 27.7787 30.9971 27.7508 36.8744 27.9738C35.451 28.4198 34.0276 28.7822 33.0174 29.5069C32.2828 30.0366 31.3185 30.0923 30.2165 30.0366C28.7931 29.9529 27.3238 29.9808 25.8544 29.9529C22.1352 29.7578 18.37 29.6742 14.6508 29.6184C13.1355 29.3954 11.5744 29.4512 10.0132 29.4512C8.63569 29.3118 7.30411 29.3397 5.92661 29.6184L5.88069 29.8136V29.6463C5.42153 29.6742 4.96236 29.5627 4.54911 29.7578C3.9522 30.2317 3.99811 30.7892 3.72261 31.3467C3.49303 31.8763 3.21753 32.2666 2.34511 32.5453C1.65636 32.7683 1.38086 33.2143 1.24311 33.6882C0.783944 35.1377 0.692111 36.5872 1.01353 38.0646C1.05944 38.0924 1.15128 38.0924 1.24311 38.0924C1.42678 38.2876 1.65636 38.4269 2.0237 38.4548C2.11553 38.5106 2.20736 38.5663 2.2992 38.6221C2.34511 38.7336 2.39103 38.7893 2.57469 38.7614C3.40119 39.5698 4.82461 39.7649 6.11028 40.0716C9.64586 40.7406 13.3651 40.6848 16.9925 40.9078C17.3139 41.4096 17.3599 41.8834 16.9466 42.3573C16.7629 42.4688 16.6252 42.5803 16.4415 42.6918C16.166 42.7197 16.0283 42.8591 15.8905 42.9984C14.8804 43.5559 13.9161 44.1413 12.9059 44.6988C12.8141 44.7546 12.7223 44.7824 12.6304 44.8382C11.5284 45.2842 10.7019 45.8974 9.87544 46.4828C7.99286 47.5978 7.8092 47.9881 8.81936 48.8801C8.81936 48.9916 8.86528 49.0752 8.86528 49.1867C8.72753 49.4376 8.86528 49.6606 9.14078 49.8557C9.27853 50.3296 9.92136 50.3853 10.5183 50.5247C10.8856 50.6362 11.2529 50.7477 11.6203 50.8313C12.1713 50.9428 12.7682 50.9707 13.3651 50.9986C15.3854 51.0543 17.268 50.5804 19.2424 50.5247C19.9771 50.5804 20.7118 50.4411 21.4005 50.3574C22.6862 50.4132 23.9719 50.3296 25.2116 50.5526C25.4871 50.6083 25.7626 50.6641 25.9922 50.7198C27.1401 51.1658 28.4258 50.9707 29.6655 50.9707C32.4664 50.9986 35.2214 51.1101 38.0224 50.8871C39.308 50.9428 40.5937 50.6919 41.9253 50.8592C41.6498 51.2773 41.1906 51.5839 41.512 52.0299C41.6957 52.2529 41.6039 52.4481 41.3743 52.6432C40.2264 53.7303 39.6754 54.9847 38.8029 56.1276C38.4356 56.3227 38.206 56.5457 38.0224 56.8244C37.3795 57.2704 36.6908 57.6886 36.0479 58.1346C35.6347 58.4691 34.8541 58.5527 34.4868 58.9708C34.0276 59.1938 33.5684 59.4168 33.1093 59.6398C31.8695 60.0022 32.0073 60.6712 32.0532 61.3123C32.0073 61.3681 32.0073 61.4517 32.0532 61.5074C32.2828 61.9813 33.0634 62.0928 33.6144 62.3437C34.4868 62.8176 35.5429 63.0127 36.6908 63.1242C38.2519 63.3193 39.8131 63.5144 41.3743 63.1521C42.4304 63.0127 43.4864 62.8733 44.5425 62.7061C44.6803 62.7061 44.818 62.6782 44.9558 62.6503C45.5986 62.6782 46.1955 62.6224 46.7924 62.4831C49.5015 62.3716 52.2106 62.2601 54.9197 62.1486C55.7003 62.2043 56.4349 62.2601 57.2614 62.3158C56.8941 62.6224 56.6186 62.9012 56.3431 63.1521C54.9656 64.2671 55.1034 66.1068 56.5727 67.4448C56.7564 67.8351 57.1696 68.1696 57.6288 68.4483C57.8124 68.6156 57.9961 68.7828 58.1798 68.9501C58.2257 69.2009 58.2257 69.4518 58.3634 69.6748C58.9604 70.7062 58.9144 71.9606 61.1185 72.4066C61.348 72.7411 61.7613 72.9919 62.2664 73.2149C63.4143 74.1348 64.8377 74.7481 66.858 74.7481C67.1335 74.9153 67.409 74.8596 67.7304 74.8317C68.1896 74.8874 68.6029 74.9432 69.062 74.9711C72.0466 75.3055 74.9853 75.7237 78.0617 75.6679C79.531 75.7794 81.0004 75.9467 82.4697 75.9746C86.0971 76.0582 89.6786 76.1697 93.306 76.2254C93.306 76.2812 93.306 76.4206 93.352 76.4206C96.061 76.4206 98.816 76.4206 101.525 76.4206C103.867 76.4206 106.255 76.4206 108.596 76.4206C109.147 76.1418 110.02 76.3648 110.571 76.0582C114.014 75.8909 117.458 75.5007 120.948 75.4449C131.968 75.2777 143.034 75.5286 154.054 75.5007C154.559 75.6958 155.11 75.6122 155.661 75.6122C162.089 75.6958 168.518 75.6122 174.992 75.6679C182.338 75.7237 189.685 75.6401 197.032 75.5843C197.353 75.5843 197.629 75.5286 197.95 75.4728C205.894 75.3892 213.837 75.3056 221.827 75.1941C223.021 75.1662 224.26 75.0547 225.454 74.9711C225.776 74.9711 226.097 74.9711 226.418 74.9432C232.158 74.5529 237.898 74.4136 243.637 74.5251C249.147 74.6366 254.657 74.5529 260.167 74.5808C263.749 74.5808 267.284 74.6644 270.866 74.6644C273.988 74.6644 277.11 74.6087 280.233 74.6644C283.309 74.7481 286.386 74.6366 289.462 74.6644C292.538 74.6923 295.615 74.8038 298.691 74.7481C303.467 74.6923 308.288 74.5529 313.063 74.4693C317.104 74.4136 321.099 74.3578 325.093 74.1348C326.425 74.1069 327.802 74.1906 329.134 74.1627C333.267 74.0512 337.353 73.8839 341.486 73.8839C341.761 73.8839 342.037 73.8839 342.266 73.8839C342.404 73.8839 342.542 73.8003 342.679 73.7724C343.093 73.7724 343.46 73.7167 343.873 73.6888C344.149 73.6888 344.424 73.6609 344.7 73.6609C348.281 73.6052 351.817 73.5494 355.398 73.4658C356.041 73.4658 356.684 73.4937 357.281 73.3264C358.521 73.2707 359.806 73.2149 361.046 73.1592C362.148 73.187 363.25 73.1592 364.352 72.9919C364.857 72.9641 365.408 72.9641 365.913 72.9362C365.913 72.8526 365.959 72.7689 366.005 72.7132C366.005 72.7968 365.959 72.8804 365.913 72.9362C366.189 72.9362 366.464 72.9362 366.694 72.9362C367.245 72.8804 367.796 72.8247 368.301 72.7968C368.347 72.7689 368.439 72.7411 368.485 72.6853C368.714 72.7411 368.898 72.7132 369.127 72.6853C369.449 72.5738 369.495 72.4066 369.495 72.2114C369.449 71.7654 369.082 71.4588 368.668 71.1243C368.163 70.7062 368.209 70.3996 369.219 70.3996C369.954 70.3996 370.551 70.1487 371.24 70.0929C371.331 71.6818 372.296 72.0721 374.454 71.3473C375.418 71.0407 375.694 71.4309 376.199 71.6818C376.52 71.6818 376.841 71.7376 377.025 71.5146C378.265 71.2916 379.413 71.0128 380.561 70.6783C380.744 70.6226 380.928 70.5668 381.112 70.511C381.387 70.4553 381.617 70.3717 381.892 70.3159C382.122 70.3438 382.306 70.2602 382.443 70.1766C382.765 70.1766 383.04 70.2602 383.27 70.1208C384.05 70.0093 384.785 69.9814 385.474 69.7027C385.657 69.7027 385.795 69.4797 385.979 69.4239C386.208 69.4239 386.392 69.3403 386.53 69.2009C387.402 68.9779 387.081 68.6156 386.805 68.2253C385.795 66.7479 383.959 65.6608 381.938 64.6852C381.571 64.4064 381.066 64.2949 380.515 64.2113C380.331 64.1556 380.193 64.0719 380.01 64.0162C379.505 63.6538 378.816 63.4866 378.081 63.3751C376.75 63.1521 375.326 63.5144 373.995 63.3193V63.5702C373.535 63.5702 373.03 63.1242 372.617 63.4308C371.24 63.5702 369.954 63.0684 368.576 63.1521C368.117 63.0963 367.658 62.9848 367.199 62.9569C367.061 62.9569 366.969 62.9291 366.832 62.9291C366.602 62.9012 366.327 62.8733 366.097 62.8733C365.638 62.6224 365.913 62.3437 366.005 62.0649C366.051 61.8141 366.281 61.5911 366.005 61.4238C365.133 60.9221 365.362 60.2252 365.821 59.9464C365.867 59.9464 365.913 59.9464 365.959 59.9464C366.464 60.2252 366.923 59.9464 367.429 59.8907C367.612 59.8907 367.842 59.8349 368.025 59.8071C368.576 59.8071 369.127 59.7792 369.633 59.7513C370 59.7513 370.367 59.7513 370.735 59.8349C371.699 59.7792 372.617 59.8907 373.581 59.9186C377.163 60.0858 380.744 60.0858 384.326 60.2809C386.943 60.4203 389.606 60.4482 392.269 60.2252C395.116 60.1694 397.917 60.4482 400.718 60.6991C406.182 61.1729 411.692 61.5911 417.156 62.0371C418.947 62.1764 420.692 62.3437 422.483 62.5109C422.758 62.5388 423.034 62.5388 423.263 62.5667C425.1 62.6782 426.936 62.7618 428.773 62.8733C430.702 62.9569 432.63 63.1799 434.605 62.9569C435.064 62.9012 435.569 62.8733 435.569 62.5109C435.523 61.8141 435.798 61.0893 435.339 60.3924C436.028 59.8071 436.946 59.3332 437.222 58.6084C439.38 58.5248 441.492 58.8872 443.696 58.9429C446.359 59.1381 449.022 59.3611 451.64 59.5562C451.686 59.5841 451.777 59.6119 451.869 59.6119C452.374 59.8349 452.971 59.7513 453.522 59.7234C453.66 59.6398 453.798 59.5004 453.66 59.4447C452.604 58.5248 453.844 58.0788 454.716 57.5771C455.129 57.3262 455.634 57.1311 456.14 56.9359C456.966 56.6014 457.196 56.1833 457.196 55.5422C457.15 54.4829 457.838 54.1763 459.216 54.1206C459.216 53.8976 459.216 53.6746 459.216 53.4516C459.308 53.4237 458.665 53.3958 458.849 53.0892ZM17.4976 27.3884C17.4976 27.4163 17.4976 27.4163 17.4976 27.4442H17.4517C17.4517 27.4163 17.4517 27.3884 17.4976 27.3884ZM359.072 63.0127C359.118 63.0127 359.164 63.0127 359.118 62.9848C359.072 62.8733 359.301 63.0684 359.118 63.0406C358.613 63.1242 358.107 63.0963 357.648 63.0684C358.107 63.0963 358.613 63.0406 359.072 63.0127ZM351.817 63.0684C351.955 62.9569 352.001 62.8176 352.092 62.7061C352.506 62.7339 352.919 62.7061 353.286 62.5388C353.332 62.5946 353.378 62.6224 353.47 62.6782C354.113 62.9012 354.801 62.9291 355.49 62.7339C355.536 62.7061 355.536 62.6782 355.536 62.6503C355.536 62.6503 355.536 62.6503 355.536 62.6782C355.674 62.6782 355.858 62.7061 355.995 62.7061C356.041 62.7061 356.041 62.7061 356.087 62.7061C356.087 62.7339 356.041 62.7618 356.041 62.7897C356.317 62.9291 356.638 63.0127 356.914 63.0684C356.409 63.0406 355.949 63.0127 355.444 63.0684C355.307 63.1242 355.261 63.1521 355.215 63.2078C354.113 63.0963 353.011 63.2636 351.955 63.2914L351.909 63.2636C351.863 63.2357 351.817 63.2078 351.771 63.1799C351.771 63.1242 351.771 63.0963 351.817 63.0684ZM285.651 2.46817C285.605 2.49605 285.559 2.49605 285.513 2.52393V2.49605L285.467 2.46817C285.513 2.46817 285.605 2.46817 285.651 2.46817ZM346.812 73.4937C346.812 73.5216 346.812 73.5216 346.812 73.4937V73.4937Z" fill="#EBEBEB"/>
</svg>
